<svg width="384" height="24" viewBox="0 0 384 24" fill="none" xmlns="http://www.w3.org/2000/svg">
<path fill-rule="evenodd" clip-rule="evenodd" d="M192 8C189.791 8 188 9.79086 188 12C188 14.2091 189.791 16 192 16C194.209 16 196 14.2091 196 12C196 9.79086 194.209 8 192 8ZM190 12C190 10.8954 190.895 10 192 10C193.105 10 194 10.8954 194 12C194 13.1046 193.105 14 192 14C190.895 14 190 13.1046 190 12Z" fill="white"/>
<path fill-rule="evenodd" clip-rule="evenodd" d="M203.894 11.5521C203.894 11.5525 203.894 11.5528 203 12C203.894 12.4472 203.894 12.4475 203.894 12.4479L203.892 12.4511L203.889 12.458L203.878 12.4802C203.868 12.4987 203.855 12.5247 203.837 12.5576C203.802 12.6233 203.752 12.7168 203.686 12.834C203.554 13.0684 203.36 13.3985 203.106 13.7925C202.598 14.5787 201.843 15.6294 200.855 16.6839C198.896 18.7736 195.9 21 192 21C188.1 21 185.104 18.7736 183.145 16.6839C182.157 15.6294 181.402 14.5787 180.894 13.7925C180.64 13.3985 180.446 13.0684 180.314 12.834C180.248 12.7168 180.198 12.6233 180.163 12.5576C180.145 12.5247 180.132 12.4987 180.122 12.4802L180.111 12.458L180.108 12.4511L180.106 12.4488C180.106 12.4484 180.106 12.4472 181 12C180.106 11.5528 180.106 11.5525 180.106 11.5521L180.108 11.5489L180.111 11.542L180.122 11.5198C180.132 11.5013 180.145 11.4753 180.163 11.4424C180.198 11.3767 180.248 11.2832 180.314 11.166C180.446 10.9316 180.64 10.6015 180.894 10.2075C181.402 9.42131 182.157 8.3706 183.145 7.31606C185.104 5.22644 188.1 3 192 3C195.9 3 198.896 5.22644 200.855 7.31606C201.843 8.3706 202.598 9.42131 203.106 10.2075C203.36 10.6015 203.554 10.9316 203.686 11.166C203.752 11.2832 203.802 11.3767 203.837 11.4424C203.855 11.4753 203.868 11.5013 203.878 11.5198L203.889 11.542L203.892 11.5489L203.894 11.5521ZM182.574 12.7075C182.395 12.4296 182.25 12.1889 182.141 12C182.25 11.8111 182.395 11.5704 182.574 11.2925C183.035 10.5787 183.718 9.6294 184.605 8.68394C186.396 6.77356 188.9 5 192 5C195.1 5 197.604 6.77356 199.395 8.68394C200.282 9.6294 200.965 10.5787 201.426 11.2925C201.605 11.5704 201.75 11.8111 201.859 12C201.75 12.1889 201.605 12.4296 201.426 12.7075C200.965 13.4213 200.282 14.3706 199.395 15.3161C197.604 17.2264 195.1 19 192 19C188.9 19 186.396 17.2264 184.605 15.3161C183.718 14.3706 183.035 13.4213 182.574 12.7075Z" fill="white"/>
<path d="M203 12L203.894 11.5521C204.035 11.8336 204.035 12.1664 203.894 12.4479L203 12Z" fill="white"/>
<path d="M180.106 11.5521L181 12L180.106 12.4472C179.965 12.1657 179.965 11.8336 180.106 11.5521Z" fill="white"/>
</svg>
